<svg width="225" height="237" viewBox="0 0 225 237" fill="none" xmlns="http://www.w3.org/2000/svg">
<path d="M100.716 18.4561H119.172V4.19617e-05H100.716V18.4561Z" fill="#BE433F"/>
<path d="M75.6982 43.8854H94.1543V25.4294H75.6982V43.8854Z" fill="#B6B5B6"/>
<path d="M125.734 43.8854H144.19V25.4294H125.734V43.8854Z" fill="#B6B5B6"/>
<path d="M100.716 103.969H119.172V25.4294H100.716V103.969Z" fill="#2A2F46"/>
<path d="M150.752 85.1545L144.189 79.3105V50.8051H125.733V86.7438L144.189 103.61H171.053V85.1545H150.752Z" fill="#2A2F46"/>
<path d="M69.1353 85.1545L75.698 79.3105V50.8051H94.154V86.7438L75.698 103.61H48.834V85.1545H69.1353Z" fill="#2A2F46"/>
<path d="M27.6859 156.105H44.6152V132.818H54.0045V200.239H44.6152V163.793H27.6859V156.105ZM31.0125 146.421H9.86985V176.287C19.6645 176.175 26.7245 175.733 34.6352 174.291L35.5965 181.905C26.3552 183.679 18.2232 184.049 5.80318 183.975H0.33252V138.731H31.0125V146.421Z" fill="#BE433F"/>
<path d="M116.858 146.272H102.813V166.676H116.858V146.272ZM84.0343 138.732H135.636V146.272H126.173V166.676H135.34V174.068H84.3303V166.676H93.349V146.272H84.0343V138.732ZM140.81 192.255H79.229V184.419H140.81V192.255Z" fill="#BE433F"/>
<path d="M204.921 132.817H214.383V158.913H224.29V166.824H214.383V200.091H204.921V132.817ZM201.298 179.317L196.05 186.415C188.842 183.161 183.851 176.841 181.042 169.337C178.122 177.432 172.837 184.233 165.222 187.597L160.047 180.279C171.025 175.436 176.238 163.977 176.311 153.887V151.299H162.413V143.759H176.238V134.296H185.701V143.759H199.377V151.299H185.626V153.887C185.626 163.46 190.579 174.253 201.298 179.317Z" fill="#BE433F"/>
<path d="M0 216.237H14.6987V218.39H8.588V235.728H6.13733V218.39H0V216.237Z" fill="#BE433F"/>
<path d="M26.0173 235.727H23.7026V216.236H26.0173V223.397H26.2066C26.892 221.889 28.1973 220.92 30.5133 220.92C33.5013 220.92 35.4933 222.684 35.4933 226.439V235.727H33.1786V226.601C33.1786 224.299 31.9133 222.993 29.8133 222.993C27.632 222.993 26.0173 224.42 26.0173 226.951V235.727Z" fill="#BE433F"/>
<path d="M55.157 227.22C55.1437 224.784 53.609 222.966 51.1997 222.966C48.669 222.966 47.0677 224.958 46.9064 227.22H55.157ZM44.5784 228.538C44.5784 224.044 47.229 220.921 51.1997 220.921C54.269 220.921 57.513 222.805 57.4997 228.216V229.185H46.893C47.0144 232.281 48.817 233.977 51.4157 233.977C53.165 233.977 54.269 233.21 54.8064 232.308H57.2837C56.597 234.529 54.4304 236.036 51.4157 236.022C47.189 236.036 44.5784 233.021 44.5784 228.538Z" fill="#BE433F"/>
<path d="M73.1256 223.048H69.8949V235.728H67.5536V223.048H65.2109V221.109H67.5536V219.117C67.5669 216.749 69.1416 215.321 71.7256 215.321C72.2909 215.321 72.9643 215.389 73.4483 215.484V217.556C72.9509 217.476 72.5336 217.448 72.2363 217.448C70.6083 217.448 69.8816 218.121 69.8949 219.629V221.109H73.1256V223.048Z" fill="#BE433F"/>
<path d="M80.6335 228.485C80.6335 224.044 83.2842 220.921 87.2562 220.921C90.3655 220.921 92.7069 222.765 93.0709 225.524H90.7549C90.4189 224.192 89.2615 222.967 87.3095 222.967C84.6989 222.967 82.9615 225.12 82.9482 228.405C82.9615 231.783 84.6575 233.951 87.3095 233.951C89.0322 233.951 90.3509 233.021 90.7549 231.42H93.0709C92.7069 234.031 90.5535 236.036 87.3095 236.023C83.1642 236.036 80.6335 232.873 80.6335 228.485Z" fill="#BE433F"/>
<path d="M104.309 235.727H101.993V216.236H104.309V223.397H104.497C105.183 221.889 106.489 220.92 108.805 220.92C111.793 220.92 113.785 222.684 113.785 226.439V235.727H111.469V226.601C111.469 224.299 110.203 222.993 108.103 222.993C105.923 222.993 104.309 224.42 104.309 226.951V235.727Z" fill="#BE433F"/>
<path d="M128.252 234.004C130.863 234.017 132.318 232.268 132.318 230.424V228.956C131.631 228.997 129.33 229.172 128.63 229.212C126.53 229.346 125.198 230.086 125.183 231.689C125.198 233.237 126.476 234.017 128.252 234.004ZM128.36 227.273C129.303 227.206 131.658 227.072 132.318 227.058V225.874C132.318 224.017 131.214 222.94 129.006 222.94C127.162 222.94 126.044 223.788 125.722 224.905H123.299C123.595 222.549 125.883 220.921 129.114 220.921C131.026 220.921 134.619 221.486 134.606 226.089V235.726H132.318V233.734H132.21C131.724 234.717 130.392 236.062 127.848 236.077C125.076 236.062 122.868 234.434 122.868 231.581C122.868 228.229 125.83 227.462 128.36 227.273Z" fill="#BE433F"/>
<path d="M144.309 234.138C144.283 233.196 145.091 232.416 146.032 232.416C146.988 232.416 147.769 233.196 147.755 234.138C147.769 235.094 146.988 235.874 146.032 235.888C145.091 235.874 144.283 235.094 144.309 234.138Z" fill="#BE433F"/>
<path d="M156.757 228.485C156.757 224.044 159.407 220.921 163.379 220.921C166.489 220.921 168.83 222.765 169.194 225.524H166.878C166.542 224.192 165.385 222.967 163.433 222.967C160.822 222.967 159.085 225.12 159.071 228.405C159.085 231.783 160.781 233.951 163.433 233.951C165.155 233.951 166.474 233.021 166.878 231.42H169.194C168.83 234.031 166.677 236.036 163.433 236.023C159.287 236.036 156.757 232.873 156.757 228.485Z" fill="#BE433F"/>
<path d="M184.093 233.977C187.041 233.977 188.399 231.406 188.399 228.485C188.399 225.578 187.041 222.966 184.093 222.966C181.118 222.966 179.746 225.578 179.731 228.485C179.746 231.406 181.118 233.977 184.093 233.977ZM177.417 228.485C177.417 223.922 180.109 220.921 184.093 220.921C188.063 220.921 190.729 223.922 190.715 228.485C190.729 233.021 188.063 236.036 184.093 236.024C180.109 236.036 177.417 233.021 177.417 228.485Z" fill="#BE433F"/>
<path d="M199.826 221.109H202.061V223.397H202.249C202.856 221.836 204.269 220.921 206.18 220.921C208.092 220.921 209.397 221.836 210.082 223.397H210.244C210.985 221.891 212.533 220.921 214.633 220.921C217.23 220.921 219.101 222.509 219.101 225.955V235.727H216.786V225.981C216.773 223.828 215.426 222.993 213.825 222.993C211.793 222.993 210.634 224.367 210.621 226.224V235.727H208.28V225.74C208.293 224.097 207.109 222.993 205.426 222.993C203.676 222.993 202.142 224.475 202.142 226.601V235.727H199.826V221.109Z" fill="#BE433F"/>
</svg>
