<svg width="368" height="105" viewBox="0 0 368 105" fill="none" xmlns="http://www.w3.org/2000/svg">
<path d="M52.3801 18.4561H70.8361V6.10352e-05H52.3801V18.4561Z" fill="#BE433F"/>
<path d="M27.3628 43.884H45.8188V25.428H27.3628V43.884Z" fill="#B6B5B6"/>
<path d="M77.3987 43.884H95.8547V25.428H77.3987V43.884Z" fill="#B6B5B6"/>
<path d="M52.3801 103.969H70.8361V25.4295H52.3801V103.969Z" fill="#2A2F46"/>
<path d="M102.417 85.1541L95.8539 79.3101V50.8048H77.3979V86.7434L95.8539 103.61H122.718V85.1541H102.417Z" fill="#2A2F46"/>
<path d="M20.7999 85.1541L27.3625 79.3101V50.8048H45.8185V86.7434L27.3625 103.61H0.498535V85.1541H20.7999Z" fill="#2A2F46"/>
<path d="M170.813 24.785H187.742V1.49834H197.131V68.9197H187.742V32.473H170.813V24.785ZM174.139 15.101H152.997V44.9677C162.791 44.8557 169.851 44.413 177.762 42.9717L178.723 50.585C169.482 52.3597 161.35 52.729 148.93 52.6557H143.459V7.41168H174.139V15.101Z" fill="#BE433F"/>
<path d="M259.984 14.9534H245.939V35.3574H259.984V14.9534ZM227.162 7.41203H278.763V14.9534H269.3V35.356H278.467V42.7494H227.456V35.356H236.476V14.9534H227.162V7.41203ZM283.938 60.936H222.356V53.1H283.938V60.936Z" fill="#BE433F"/>
<path d="M348.048 1.49791H357.51V27.5939H367.417V35.5046H357.51V68.7712H348.048V1.49791ZM344.425 47.9979L339.177 55.0952C331.969 51.8419 326.978 45.5219 324.169 38.0179C321.249 46.1126 315.964 52.9139 308.349 56.2779L303.174 48.9592C314.152 44.1166 319.365 32.6579 319.438 22.5672V19.9792H305.54V12.4392H319.365V2.97658H328.828V12.4392H342.504V19.9792H328.753V22.5672C328.753 32.1406 333.706 42.9339 344.425 47.9979Z" fill="#BE433F"/>
<path d="M144.847 84.9173H159.546V87.0706H153.435V104.408H150.985V87.0706H144.847V84.9173Z" fill="#BE433F"/>
<path d="M170.864 104.407H168.55V84.9168H170.864V92.0781H171.052C171.739 90.5701 173.044 89.6008 175.36 89.6008C178.348 89.6008 180.34 91.3648 180.34 95.1195V104.407H178.026V95.2821C178.026 92.9795 176.76 91.6741 174.66 91.6741C172.48 91.6741 170.864 93.1008 170.864 95.6315V104.407Z" fill="#BE433F"/>
<path d="M200.004 95.9006C199.991 93.4646 198.456 91.6473 196.047 91.6473C193.516 91.6473 191.915 93.6393 191.754 95.9006H200.004ZM189.424 97.2193C189.424 92.7246 192.076 89.6019 196.047 89.6019C199.116 89.6019 202.36 91.4859 202.347 96.8966V97.8659H191.74C191.862 100.962 193.664 102.658 196.263 102.658C198.012 102.658 199.116 101.891 199.654 100.989H202.131C201.444 103.21 199.278 104.717 196.263 104.703C192.036 104.717 189.424 101.702 189.424 97.2193Z" fill="#BE433F"/>
<path d="M217.973 91.728H214.742V104.408H212.401V91.728H210.058V89.7893H212.401V87.7973C212.414 85.4293 213.989 84.0013 216.573 84.0013C217.138 84.0013 217.811 84.0693 218.295 84.164V86.236C217.798 86.156 217.381 86.128 217.083 86.128C215.455 86.128 214.729 86.8013 214.742 88.3093V89.7893H217.973V91.728Z" fill="#BE433F"/>
<path d="M225.481 97.1657C225.481 92.7244 228.131 89.6017 232.103 89.6017C235.213 89.6017 237.554 91.4457 237.918 94.2044H235.602C235.266 92.8724 234.109 91.6471 232.157 91.6471C229.546 91.6471 227.809 93.8004 227.795 97.0844C227.809 100.463 229.505 102.631 232.157 102.631C233.879 102.631 235.198 101.702 235.602 100.1H237.918C237.554 102.711 235.401 104.716 232.157 104.703C228.011 104.716 225.481 101.554 225.481 97.1657Z" fill="#BE433F"/>
<path d="M249.156 104.407H246.84V84.9168H249.156V92.0781H249.344C250.031 90.5701 251.336 89.6008 253.652 89.6008C256.64 89.6008 258.632 91.3648 258.632 95.1195V104.407H256.316V95.2821C256.316 92.9795 255.051 91.6741 252.951 91.6741C250.771 91.6741 249.156 93.1008 249.156 95.6315V104.407Z" fill="#BE433F"/>
<path d="M273.1 102.684C275.71 102.698 277.165 100.948 277.165 99.1045V97.6365C276.478 97.6778 274.177 97.8525 273.477 97.8925C271.377 98.0271 270.045 98.7671 270.03 100.37C270.045 101.918 271.324 102.698 273.1 102.684ZM273.208 95.9538C274.15 95.8871 276.505 95.7525 277.165 95.7391V94.5551C277.165 92.6978 276.061 91.6205 273.853 91.6205C272.009 91.6205 270.892 92.4685 270.569 93.5858H268.146C268.442 91.2298 270.73 89.6018 273.961 89.6018C275.873 89.6018 279.466 90.1671 279.453 94.7698V104.407H277.165V102.415H277.057C276.572 103.398 275.24 104.743 272.696 104.758C269.924 104.743 267.716 103.115 267.716 100.262C267.716 96.9098 270.677 96.1431 273.208 95.9538Z" fill="#BE433F"/>
<path d="M289.156 102.819C289.13 101.876 289.938 101.096 290.879 101.096C291.835 101.096 292.616 101.876 292.602 102.819C292.616 103.775 291.835 104.555 290.879 104.568C289.938 104.555 289.13 103.775 289.156 102.819Z" fill="#BE433F"/>
<path d="M301.604 97.1657C301.604 92.7244 304.254 89.6017 308.226 89.6017C311.336 89.6017 313.677 91.4457 314.041 94.2044H311.725C311.389 92.8724 310.232 91.6471 308.28 91.6471C305.669 91.6471 303.932 93.8004 303.918 97.0844C303.932 100.463 305.628 102.631 308.28 102.631C310.002 102.631 311.321 101.702 311.725 100.1H314.041C313.677 102.711 311.524 104.716 308.28 104.703C304.134 104.716 301.604 101.554 301.604 97.1657Z" fill="#BE433F"/>
<path d="M328.94 102.658C331.888 102.658 333.246 100.087 333.246 97.1656C333.246 94.259 331.888 91.647 328.94 91.647C325.965 91.647 324.593 94.259 324.578 97.1656C324.593 100.087 325.965 102.658 328.94 102.658ZM322.264 97.1656C322.264 92.603 324.956 89.6016 328.94 89.6016C332.91 89.6016 335.576 92.603 335.562 97.1656C335.576 101.702 332.91 104.716 328.94 104.704C324.956 104.716 322.264 101.702 322.264 97.1656Z" fill="#BE433F"/>
<path d="M344.673 89.7896H346.908V92.0776H347.096C347.703 90.5163 349.116 89.6017 351.027 89.6017C352.939 89.6017 354.244 90.5163 354.929 92.0776H355.091C355.832 90.571 357.38 89.6017 359.48 89.6017C362.077 89.6017 363.948 91.1896 363.948 94.635V104.407H361.633V94.6616C361.62 92.5083 360.273 91.6736 358.672 91.6736C356.64 91.6736 355.481 93.047 355.468 94.9043V104.407H353.127V94.4203C353.14 92.7776 351.956 91.6736 350.273 91.6736C348.523 91.6736 346.989 93.155 346.989 95.2816V104.407H344.673V89.7896Z" fill="#BE433F"/>
</svg>
